<?xml version="1.0" encoding="UTF-8"?>
<svg width="16px" height="16px" viewBox="0 0 16 16" version="1.1" xmlns="http://www.w3.org/2000/svg" xmlns:xlink="http://www.w3.org/1999/xlink">
    <!-- Generator: Sketch 53.1 (72631) - https://sketchapp.com -->
    <title>Mask</title>
    <desc>Created with Sketch.</desc>
    <defs>
        <path d="M189.645163,2.74112742 C191.67742,4.16732969 193,6.49996274 193,9.14002162 C193,13.4756765 189.425808,16.9904728 185.016132,16.9999808 C180.612908,17.0094888 177.006457,13.4820152 177.000006,9.15269897 C176.99678,6.5126401 178.31936,4.17366837 180.348392,2.74429675 C180.725811,2.48124167 181.251617,2.59216851 181.477424,2.98833581 L181.987101,3.8789199 C182.177423,4.21170043 182.087101,4.63322243 181.774198,4.8614148 C180.435488,5.83757102 179.58065,7.38420815 179.58065,9.13685228 C179.577424,12.0621516 181.983875,14.4645101 185.000003,14.4645101 C187.954841,14.4645101 190.438711,12.112861 190.419356,9.1051589 C190.409678,7.46344161 189.622582,5.87877242 188.222582,4.85824546 C187.909679,4.63005309 187.822583,4.20853109 188.012905,3.8789199 L188.522582,2.98833581 C188.748389,2.59533785 189.270969,2.47807233 189.645163,2.74112742 Z M186.469388,9.21333333 L186.469388,1.74666667 C186.469388,1.33288889 186.12,1 185.685714,1 L184.640816,1 C184.206531,1 183.857143,1.33288889 183.857143,1.74666667 L183.857143,9.21333333 C183.857143,9.62711111 184.206531,9.96 184.640816,9.96 L185.685714,9.96 C186.12,9.96 186.469388,9.62711111 186.469388,9.21333333 Z" id="path-1"></path>
    </defs>
    <g id="Cabeceras" stroke="none" stroke-width="1" fill="none" fill-rule="evenodd">
        <g id="Menu-slide-Status" transform="translate(-1224.000000, -87.000000)">
            <g id="Group-15" transform="translate(1047.000000, 86.000000)">
                <mask id="mask-2" fill="white">
                    <use xlink:href="#path-1"></use>
                </mask>
                <use id="Mask" fill="#FFFFFF" fill-rule="nonzero" xlink:href="#path-1"></use>
            </g>
        </g>
    </g>
</svg>